<svg xmlns="http://www.w3.org/2000/svg" width="128" zoomAndPan="magnify" viewBox="0 0 375 375" height="128" preserveAspectRatio="xMidYMid meet" xmlns:v="https://vecta.io/nano"><style><![CDATA[.B{clip-rule:nonzero}.C{fill:#f6871b}.D{fill:#88421f}]]></style><defs><clipPath id="A"><path d="M236.297 355h40.266v20h-40.266zm0 0" class="B"/></clipPath><clipPath id="B"><path d="M157 355h60.223v20H157zm0 0" class="B"/></clipPath><clipPath id="C"><path d="M157.883 355h59.34v20h-59.34zm0 0" class="B"/></clipPath><clipPath id="D"><path d="M138 315.766h20V375h-20zm0 0" class="B"/></clipPath><clipPath id="E"><path d="M276 355h20.695v20H276zm0 0" class="B"/></clipPath></defs><g fill="#221516"><path d="M217.102 375.012l-.012-19.746-59.199.016-.012-39.488-19.734.008.012 59.203-19.738.008-.012-59.219-59.199.008-.012-19.758-19.738.012-.008-19.727-19.707.008-.012-19.738-19.719.008L0 217.117l19.742-.008-.012-19.734-19.719.008L0 118.434l19.742-.012-.012-19.738 59.207-.008.008 19.758 39.473-.012.008 19.742 59.199-.008-.016-78.918 19.762-.012-.012-19.734-19.734.012-.016-39.488 98.688-.012.008 19.758 39.465-.008.016 19.738 19.723-.008.008 19.754 19.734-.012.008 59.207 19.723-.012.016 19.742-19.746.012.008 59.199 19.723-.012.016 78.965-19.746.008.008 19.707-39.488.012.016 19.738-39.488.008.008 39.465-39.488.016.012 19.73h-19.727"/><path d="M355.25 197.375h19.73v78.953h-19.73v19.715h-39.48v19.75h-39.473v39.473h-39.48v19.738h-19.715v-19.738h-59.211v-39.473h-19.746v59.211h-19.727v-59.211H59.207v-19.75h-19.75v-19.715H19.742v-19.73H.012v-39.48h19.73v-19.742H.012v-78.941h19.73v-19.75h59.195v19.75h39.48v19.73h59.207V59.238h19.746V39.492h-19.746V.016h98.672v19.746h39.473v19.73h19.738v19.746h19.742v59.195h19.73v19.73h-19.73v59.211"/></g><g fill="#c52d25"><path d="M296.039 78.98l-.008-19.742-39.465.008-.016-19.754-59.18.012-.012-19.742 78.938-.008.008 19.738 39.465-.008.016 39.496h-19.746"/><path d="M315.77 39.492v39.48h-19.73V59.238h-39.473V39.492h-59.195v-19.73h78.926v19.73h39.473"/></g><g fill="#c1673d"><path d="M39.457 256.605l-.008-39.488 39.488-.008.008 19.742-19.738.012.008 19.742H39.457"/><path d="M78.938 217.117v19.734h-19.73v19.746h-19.75v-39.48h39.48m19.742.016l-.008-39.488-19.734.008.008 19.723-19.738.008-.012-19.738-19.738.008-.008-39.488 19.758-.008-.012-19.723 19.742-.012.008 19.742 19.734-.008.016 19.758 39.449-.016.012 19.746 19.734-.012.012 39.5H98.68"/><path d="M157.891 217.117H98.68v-39.473H78.938v19.73h-19.73v-19.73h-19.75v-39.48h19.75v-19.73h19.73v19.73H98.68v19.75h39.465v19.73h19.746v39.473m-78.953 39.488l-.012-19.754 19.754-.008.016 19.762H78.938"/><path d="M78.938 236.852H98.68v19.746H78.938v-19.746m-59.196-98.676l-.012-19.742 19.727-.012.016 19.754h-19.73"/><path d="M39.457 118.434v19.73H19.742v-19.73h19.715m256.582 157.902l-.008-19.738-19.734.008.008 19.723-19.738.008-.016-19.738-19.734.008-.008-19.754-19.707.012.008 19.734-98.691.008-.012-19.754 39.484-.008-.012-19.727 19.746-.008-.012-59.195 19.758-.016-.012-78.926 19.742-.016-.012-19.719 78.949-.012.012 19.746 19.719-.016.016 39.477-39.488.008-.012-19.758-19.719.016.008 59.215 19.723-.016-.012-19.734 39.484-.008.016 19.758 19.723-.016.008 59.219 19.734-.008.008 39.488-39.488.008.016 19.73H296.04"/><path d="M355.25 217.117v39.48h-39.48v19.73h-19.73v-19.73h-19.742v19.73h-19.73v-19.73h-19.75v-19.746h-19.715v19.746h-98.684v-19.746h39.473v-19.734h19.734v-59.203h19.746V78.973h19.73V59.238h78.938v19.734h19.73v39.461h-39.473v-19.75h-19.73v59.23h19.73v-19.75h39.473v19.75h19.738v59.203h19.742"/></g><g clip-path="url(#A)" class="C"><path d="M236.816 375.012l-.008-19.746 39.488-.008.008 19.754h-39.488"/><path d="M276.297 355.266v19.738h-39.48v-19.738h39.48"/></g><g clip-path="url(#B)" class="C"><path d="M157.891 375.012l-.012-19.746 59.223-.008.008 19.754h-59.219"/></g><g clip-path="url(#C)" class="C"><path d="M217.102 355.266v19.738h-59.211v-19.738h59.211"/></g><g class="C"><path d="M296.039 138.176l-.008-19.742 59.219-.012.008 19.754h-59.219"/><path d="M355.25 118.434v19.73h-59.211v-19.73h59.211"/></g><g class="D"><path d="M78.938 236.863l-.012-59.219 19.754-.012.016 59.23H78.938"/><path d="M98.68 236.852H78.938v-59.207H98.68v59.207m0 59.203l-.008-19.727 19.746-.012.008 19.738H98.68"/><path d="M98.68 276.328h19.738v19.715H98.68v-19.715M39.457 138.176l-.008-19.742 19.758-.012.008 19.754H39.457"/><path d="M59.207 138.164h-19.75v-19.73h19.75v19.73m-39.465 19.758l-.012-19.758 19.727-.008.016 19.766h-19.73"/><path d="M19.742 138.164h19.715v19.75H19.742v-19.75"/></g><g clip-path="url(#D)" class="D"><path d="M138.145 375.012l-.008-59.219 19.754-.012.012 59.23h-19.758"/><path d="M138.145 315.793h19.746v59.211h-19.746v-59.211"/></g><g class="D"><path d="M19.742 236.863l-.012-19.746 19.727-.008.016 19.754h-19.73"/><path d="M19.742 217.117h19.715v19.734H19.742v-19.734m138.149.016l-.012-39.488-19.734.008-.008-19.738 39.488-.016.012 59.234h-19.746"/><path d="M177.625 217.117h-19.734v-39.473h-19.746v-19.73h39.48v59.203"/><path d="M177.625 157.922l-.012-19.758 19.758-.008.008 19.766h-19.754"/><path d="M197.371 157.914h-19.746v-19.75h19.746v19.75m-59.226 78.949l-.008-19.746 19.754-.008.012 19.754h-19.758"/><path d="M157.891 236.852h-19.746v-19.734h19.746v19.734m-59.211-78.93l-.008-19.758 19.746-.008.008 19.766H98.68"/><path d="M98.68 138.164h19.738v19.75H98.68v-19.75M59.207 276.336l-.012-39.484 19.742-.008.008 19.754 19.734-.012.016 19.75H59.207"/><path d="M98.68 256.598v19.73H59.207v-39.477h19.73v19.746H98.68m217.09-138.156l-.008-59.203 19.746-.012.008 59.215H315.77"/><path d="M335.508 118.434H315.77V59.238h19.738v59.195M177.625 335.531l-.012-39.488-19.723.012-.012-19.727 59.223-.012-.012-19.719 39.477-.012.008 19.742 19.723-.012-.012-19.719 19.754-.012.012 39.457-39.484.012.008 39.477h-78.949"/><path d="M276.297 256.598h19.742v39.445h-39.473v39.48h-78.941v-39.48h-19.734v-19.715h59.211v-19.73h39.465v19.73h19.73v-19.73M197.371 78.98l-.012-19.742 19.742-.012.008 19.754h-19.738"/><path d="M217.102 78.973h-19.73V59.238h19.73v19.734m59.195 59.204l-.012-19.742 19.754-.012.012 19.754h-19.754"/><path d="M276.297 118.434h19.742v19.73h-19.742v-19.73m59.211 98.699l-.012-19.758 19.754-.012.008 19.77h-19.75"/><path d="M355.25 197.375v19.742h-19.742v-19.742h19.742"/></g><g clip-path="url(#E)" fill="#221516"><path d="M276.297 375.012l-.012-19.746 19.754-.008.012 19.754h-19.754"/><path d="M276.297 375.004v-19.738h19.742v19.738h-19.742"/></g></svg>