<svg xmlns="http://www.w3.org/2000/svg" xmlns:xlink="http://www.w3.org/1999/xlink" width="500" zoomAndPan="magnify" viewBox="0 0 375 375" height="500" preserveAspectRatio="xMidYMid meet" xmlns:v="https://vecta.io/nano"><path fill="#ffec00" d="M130.387 162.996v-48.91H97.777v48.91zm146.734 0v-48.91h-32.609v48.91zm32.602 81.52v-16.309H65.176v16.309zm48.918-16.309v16.309h-16.305v32.602h-16.309v32.609h-16.305v16.309h-32.602v16.305h-32.609v16.297H130.387V342.34H97.777v-16.305H65.176v-16.309H48.871v-32.609H32.563v-32.602H16.258V130.383h16.305V97.781h16.309V65.172h16.305V48.875h32.602V32.566h32.609V16.262h114.125v16.305h32.609v16.309h32.602v16.297h16.305v32.609h16.309v32.602h16.305v97.824"/><use xlink:href="#B"/><use xlink:href="#C"/><path d="M374.945 195.605v16.297h-16.305v-16.297h16.305"/><use xlink:href="#C" y="-32.601"/><use xlink:href="#C" y="-48.906"/><use xlink:href="#C" y="-65.211"/><use xlink:href="#B" y="-97.824"/><path d="M358.641 260.82v16.297h-16.305V260.82h16.305"/><use xlink:href="#C" x="-16.304" y="32.614"/><path d="M358.641 114.086v16.297h-16.305v-16.297h16.305"/><path d="M358.641 97.781v16.305h-16.305V97.781h16.305m-16.305 195.641v16.305h-16.309v-16.305h16.309"/><path d="M342.336 277.117v16.305h-16.309v-16.305h16.309m0-195.64v16.305h-16.309V81.477h16.309"/><path d="M342.336 65.172v16.305h-16.309V65.172h16.309"/><use xlink:href="#B" x="-48.918" y="81.52"/><path d="M326.027 48.875v16.297h-16.305V48.875h16.305m-16.304 277.16v16.305h-16.297v-16.305h16.297"/><path d="M309.723 228.207v16.309h-16.297v-16.309h16.297m0-195.641v16.309h-16.297V32.566h16.297"/><use xlink:href="#C" x="-81.519" y="114.133"/><use xlink:href="#B" x="-81.519"/><path d="M293.426 32.566v16.309h-16.305V32.566h16.305M277.121 342.34v16.297h-16.305V342.34h16.305"/><use xlink:href="#B" x="-97.824"/><use xlink:href="#C" x="-97.824" y="-65.211"/><use xlink:href="#B" x="-97.824" y="-97.824"/><path d="M277.121 114.086v16.297h-16.305v-16.297h16.305m0-97.824v16.305h-16.305V16.262h16.305M260.816 342.34v16.297h-16.305V342.34h16.305"/><use xlink:href="#B" x="-114.129"/><use xlink:href="#C" x="-114.129" y="-65.211"/><use xlink:href="#B" x="-114.129" y="-97.824"/><path d="M260.816 114.086v16.297h-16.305v-16.297h16.305m0-97.824v16.305h-16.305V16.262h16.305m-16.304 342.375v16.305h-16.309v-16.305h16.309"/><path d="M244.512 228.207v16.309h-16.309v-16.309h16.309m0-228.25v16.305h-16.309V-.043h16.309m-16.309 358.68v16.305h-16.297v-16.305h16.297"/><path d="M228.203 228.207v16.309h-16.297v-16.309h16.297m0-228.25v16.305h-16.297V-.043h16.297"/><use xlink:href="#C" x="-163.039" y="146.735"/><use xlink:href="#B" x="-163.039"/><path d="M211.906-.043v16.305h-16.305V-.043h16.305"/><use xlink:href="#C" x="-179.343" y="146.735"/><use xlink:href="#B" x="-179.343"/><path d="M195.602-.043v16.305h-16.305V-.043h16.305"/><use xlink:href="#C" x="-195.648" y="146.735"/><use xlink:href="#B" x="-195.648"/><path d="M179.297-.043v16.305h-16.305V-.043h16.305m-16.305 358.68v16.305h-16.297v-16.305h16.297"/><path d="M162.992 228.207v16.309h-16.297v-16.309h16.297m0-228.25v16.305h-16.297V-.043h16.297m-16.297 358.68v16.305h-16.309v-16.305h16.309"/><path d="M146.695 228.207v16.309h-16.309v-16.309h16.309m0-228.25v16.305h-16.309V-.043h16.309M130.387 342.34v16.297h-16.305V342.34h16.305"/><use xlink:href="#B" x="-244.558"/><use xlink:href="#C" x="-244.558" y="-65.211"/><use xlink:href="#B" x="-244.558" y="-97.824"/><path d="M130.387 114.086v16.297h-16.305v-16.297h16.305m0-97.824v16.305h-16.305V16.262h16.305M114.082 342.34v16.297H97.777V342.34h16.305"/><path d="M114.082 228.207v16.309H97.777v-16.309h16.305m0-81.516v16.305H97.777v-16.305h16.305"/><path d="M114.082 130.383v16.309H97.777v-16.309h16.305"/><path d="M114.082 114.086v16.297H97.777v-16.297h16.305m0-97.824v16.305H97.777V16.262h16.305M97.777 326.035v16.305H81.473v-16.305h16.305m-.001-97.828v16.309H81.473v-16.309h16.305"/><path d="M97.777 32.566v16.309H81.473V32.566h16.305M81.473 326.035v16.305H65.176v-16.305h16.297"/><path d="M81.473 228.207v16.309H65.176v-16.309h16.297m0-195.641v16.309H65.176V32.566h16.297M65.176 309.727v16.309H48.871v-16.309h16.305"/><path d="M65.176 48.875v16.297H48.871V48.875h16.305M48.871 293.422v16.305H32.563v-16.305h16.309"/><path d="M48.871 277.117v16.305H32.563v-16.305h16.309m-.001-195.64v16.305H32.563V81.477h16.309"/><path d="M48.871 65.172v16.305H32.563V65.172h16.309M32.563 260.82v16.297H16.258V260.82h16.305"/><path d="M32.563 244.516v16.305H16.258v-16.305h16.305m0-130.43v16.297H16.258v-16.297h16.305"/><path d="M32.563 97.781v16.305H16.258V97.781h16.305M16.258 228.207v16.309H-.047v-16.309h16.305"/><path d="M16.258 211.902v16.305H-.047v-16.305h16.305"/><path d="M16.258 195.605v16.297H-.047v-16.297h16.305"/><path d="M16.258 179.301v16.305H-.047v-16.305h16.305"/><path d="M16.258 162.996v16.305H-.047v-16.305h16.305"/><path d="M16.258 146.691v16.305H-.047v-16.305h16.305"/><path d="M16.258 130.383v16.309H-.047v-16.309h16.305"/><defs ><path id="B" d="M374.945 228.207v16.309h-16.305v-16.309h16.305"/><path id="C" d="M374.945 211.902v16.305h-16.305v-16.305h16.305"/></defs></svg>